<svg width="12" height="18" viewBox="0 0 12 18" fill="none" xmlns="http://www.w3.org/2000/svg">
<path opacity="0.5" d="M6 7.08594C7.87691 7.08594 9.39844 5.56441 9.39844 3.6875C9.39844 1.81059 7.87691 0.289062 6 0.289062C4.12309 0.289062 2.60156 1.81059 2.60156 3.6875C2.60156 5.56441 4.12309 7.08594 6 7.08594Z" fill="#9FA6B1"/>
<path d="M6 7.08594V0.289062C7.87383 0.289062 9.39844 1.81367 9.39844 3.6875C9.39844 5.56133 7.87383 7.08594 6 7.08594Z" fill="#9FA6B1"/>
<path opacity="0.5" d="M11.2734 13.1414V16.343C11.2734 17.0973 10.6598 17.7109 9.90547 17.7109H2.09453C1.34023 17.7109 0.726562 17.0973 0.726562 16.343V13.1414C0.726562 10.5348 2.84727 8.41406 5.45391 8.41406H6.54609C9.15273 8.41406 11.2734 10.5348 11.2734 13.1414Z" fill="#9FA6B1"/>
<path d="M11.2734 13.1414V16.343C11.2734 17.0973 10.6598 17.7109 9.90547 17.7109H6V8.41406H6.54609C9.15273 8.41406 11.2734 10.5348 11.2734 13.1414Z" fill="#9FA6B1"/>
</svg>
